<svg xmlns="http://www.w3.org/2000/svg" width="400" height="400" viewBox="0 0 400 400"><g><path d="M313.68 204.63c-33.3-32.42-71.46-57.34-71.46-57.34s-82.77-52.2-82.77-85.38c0-39.15 104.39-48.09 104.39-48.09S239.61 3.38 188.16 3.38c-58.91 0-147.27 45.49-147.27 102.53 0 35.08 25.2 67.22 48.52 89.47 33.3 32.42 71.46 57.34 71.46 57.34s82.77 52.2 82.77 85.38c0 39.15-104.39 48.09-104.39 48.09s24.23 10.44 75.68 10.44c58.91 0 147.27-45.49 147.27-102.53 0-35.08-25.21-67.23-48.52-89.47z" fill="#00b5f0"></path><path d="M91.52 246.74l3.73 35.05s-67.11-26.84-90.97-92.46c0 0-4.47 144.66 99.92 160.32l2.98 23.86 65.62-49.96-81.28-76.81z" fill="#00d9aa"></path><path d="M308.48 155.03l-3.73-35.05s67.11 26.84 90.97 92.46c0 0 4.47-144.66-99.92-160.32l-2.98-23.86-65.62 49.96 81.28 76.81z" fill="#ff5280"></path></g></svg>